<?xml version="1.0" encoding="utf-8"?>
<!-- Generator: Adobe Illustrator 27.5.0, SVG Export Plug-In . SVG Version: 6.00 Build 0)  -->
<svg version="1.1" xmlns="http://www.w3.org/2000/svg" xmlns:xlink="http://www.w3.org/1999/xlink" x="0px" y="0px"
	 viewBox="0 0 500 500" style="enable-background:new 0 0 500 500;" xml:space="preserve">
<g id="BACKGROUND">
	<rect style="fill:#FEFDFF;" width="500" height="500"/>
</g>
<g id="OBJECTS">
	<g>
		<ellipse style="fill:#CAE6FE;" cx="255.808" cy="430.785" rx="221.255" ry="13.999"/>
	</g>
	<g>
		<path style="fill:#CAE6FE;" d="M438.448,177.559c0,1.197-0.488,2.289-1.283,3.079c-0.785,0.795-1.876,1.283-3.074,1.283h-93.244
			c-2.395,0-4.357-1.962-4.357-4.362c0-1.197,0.488-2.289,1.283-3.079c0.785-0.795,1.877-1.283,3.074-1.283h4.407
			c1.741-4.045,5.761-6.872,10.439-6.872c3.149,0,5.997,1.283,8.06,3.351c2.747-4.659,7.813-7.788,13.614-7.788
			c1.595,0,3.129,0.241,4.578,0.679c3.034-5.705,9.031-9.589,15.943-9.589c8.301,0,15.284,5.605,17.392,13.232
			c1.529-0.765,3.255-1.202,5.086-1.202c5.177,0,9.544,3.456,10.917,8.19h2.808C436.486,173.197,438.448,175.159,438.448,177.559z"
			/>
		<path style="fill:#CAE6FE;" d="M116.705,101.578c0,1.032-0.421,1.973-1.106,2.654c-0.677,0.685-1.618,1.106-2.65,1.106H32.573
			c-2.064,0-3.756-1.691-3.756-3.76c0-1.032,0.421-1.973,1.106-2.654c0.676-0.685,1.618-1.106,2.65-1.106h3.799
			c1.501-3.487,4.966-5.924,8.999-5.924c2.715,0,5.169,1.106,6.948,2.888c2.368-4.016,6.735-6.713,11.735-6.713
			c1.375,0,2.697,0.208,3.946,0.585c2.615-4.918,7.784-8.266,13.743-8.266c7.156,0,13.175,4.831,14.992,11.406
			c1.318-0.659,2.806-1.036,4.384-1.036c4.463,0,8.227,2.979,9.411,7.06h2.42C115.014,97.818,116.705,99.51,116.705,101.578z"/>
		<path style="fill:#CAE6FE;" d="M266.263,81.429c0,1.046-0.426,1.999-1.12,2.689c-0.686,0.694-1.639,1.121-2.685,1.121h-81.444
			c-2.092,0-3.806-1.714-3.806-3.81c0-1.046,0.426-1.999,1.121-2.689c0.685-0.694,1.639-1.121,2.685-1.121h3.849
			c1.52-3.533,5.031-6.003,9.118-6.003c2.751,0,5.238,1.12,7.04,2.927c2.399-4.069,6.824-6.802,11.891-6.802
			c1.393,0,2.733,0.211,3.999,0.593c2.65-4.983,7.888-8.376,13.926-8.376c7.251,0,13.35,4.896,15.191,11.557
			c1.336-0.668,2.843-1.05,4.443-1.05c4.522,0,8.336,3.019,9.536,7.154h2.452C264.549,77.619,266.263,79.333,266.263,81.429z"/>
	</g>
	<g>
		<g>
			<g>
				<g>
					<path style="fill:#2A365C;" d="M442.092,151.174c3.032,0,5.499,2.467,5.499,5.499s-2.467,5.499-5.499,5.499
						c-3.032,0-5.499-2.467-5.499-5.499S439.06,151.174,442.092,151.174z M442.092,152.899c-2.081,0-3.774,1.693-3.774,3.774
						c0,2.081,1.693,3.774,3.774,3.774c2.081,0,3.774-1.693,3.774-3.774C445.866,154.592,444.173,152.899,442.092,152.899z"/>
				</g>
				<g>
					<path style="fill:#61B3FF;" d="M436.497,123.224c3.032,0,5.499,2.467,5.499,5.499c0,3.032-2.467,5.499-5.499,5.499
						c-3.032,0-5.499-2.467-5.499-5.499C430.998,125.691,433.465,123.224,436.497,123.224z M436.497,124.95
						c-2.081,0-3.774,1.693-3.774,3.774c0,2.081,1.693,3.774,3.774,3.774c2.081,0,3.774-1.693,3.774-3.774
						C440.271,126.643,438.578,124.95,436.497,124.95z"/>
				</g>
				<g>
					<g>
						<g>
							<path style="fill:#009EF3;" d="M419.769,115.48c0,0.476,0.386,0.863,0.863,0.863h3.804c0.477,0,0.863-0.386,0.863-0.863
								c0-0.476-0.386-0.863-0.863-0.863h-3.804C420.156,114.618,419.769,115.004,419.769,115.48z"/>
						</g>
						<g>
							<path style="fill:#009EF3;" d="M413.112,115.48c0,0.476,0.386,0.863,0.863,0.863h3.804c0.476,0,0.863-0.386,0.863-0.863
								c0-0.476-0.386-0.863-0.863-0.863h-3.804C413.499,114.618,413.112,115.004,413.112,115.48z"/>
						</g>
					</g>
					<g>
						<g>
							<path style="fill:#009EF3;" d="M418.343,110.141v3.417c0,0.476,0.386,0.863,0.863,0.863c0.476,0,0.862-0.386,0.862-0.863
								v-3.417c0-0.476-0.386-0.863-0.862-0.863C418.729,109.278,418.343,109.664,418.343,110.141z"/>
						</g>
						<g>
							<path style="fill:#009EF3;" d="M418.343,117.402v3.417c0,0.476,0.386,0.862,0.863,0.862c0.476,0,0.862-0.386,0.862-0.862
								v-3.417c0-0.476-0.386-0.863-0.862-0.863C418.729,116.54,418.343,116.926,418.343,117.402z"/>
						</g>
					</g>
				</g>
				<g>
					<g>
						<g>
							<g>
								<path style="fill:#007CE6;" d="M425.973,144.852c0,0.476,0.386,0.863,0.862,0.863h3.804c0.476,0,0.863-0.386,0.863-0.863
									c0-0.476-0.386-0.863-0.863-0.863h-3.804C426.359,143.989,425.973,144.376,425.973,144.852z"/>
							</g>
							<g>
								<path style="fill:#007CE6;" d="M419.316,144.852c0,0.476,0.386,0.863,0.863,0.863h3.804c0.476,0,0.863-0.386,0.863-0.863
									c0-0.476-0.386-0.863-0.863-0.863h-3.804C419.702,143.989,419.316,144.376,419.316,144.852z"/>
							</g>
						</g>
						<g>
							<g>
								<path style="fill:#007CE6;" d="M424.546,139.512v3.417c0,0.476,0.386,0.863,0.863,0.863c0.476,0,0.863-0.386,0.863-0.863
									v-3.417c0-0.476-0.386-0.863-0.863-0.863C424.933,138.65,424.546,139.036,424.546,139.512z"/>
							</g>
							<g>
								<path style="fill:#007CE6;" d="M424.546,146.774v3.417c0,0.476,0.386,0.863,0.863,0.863c0.476,0,0.863-0.386,0.863-0.863
									v-3.417c0-0.476-0.386-0.863-0.863-0.863C424.933,145.912,424.546,146.298,424.546,146.774z"/>
							</g>
						</g>
					</g>
				</g>
			</g>
		</g>
		<g>
			<g>
				<g>
					<path style="fill:#009EF3;" d="M72.761,177.809c0,3.032-2.467,5.499-5.499,5.499c-3.032,0-5.499-2.467-5.499-5.499
						c0-3.032,2.467-5.499,5.499-5.499C70.294,172.31,72.761,174.777,72.761,177.809z M71.036,177.809
						c0-2.081-1.693-3.774-3.774-3.774s-3.774,1.693-3.774,3.774c0,2.081,1.693,3.774,3.774,3.774S71.036,179.891,71.036,177.809z"
						/>
				</g>
				<g>
					<g>
						<path style="fill:#2A365C;" d="M95.209,170.391c0,3.032-2.467,5.499-5.499,5.499c-3.032,0-5.499-2.467-5.499-5.499
							c0-3.032,2.467-5.499,5.499-5.499C92.742,164.891,95.209,167.358,95.209,170.391z M93.484,170.391
							c0-2.081-1.693-3.774-3.774-3.774c-2.081,0-3.774,1.693-3.774,3.774c0,2.081,1.693,3.774,3.774,3.774
							C91.791,174.165,93.484,172.472,93.484,170.391z"/>
					</g>
				</g>
				<g>
					<g>
						<g>
							<path style="fill:#007CE6;" d="M95.912,146.782c-0.476,0-0.863,0.386-0.863,0.863v3.804c0,0.477,0.386,0.863,0.863,0.863
								s0.863-0.386,0.863-0.863v-3.804C96.775,147.168,96.388,146.782,95.912,146.782z"/>
						</g>
						<g>
							<path style="fill:#007CE6;" d="M95.912,140.124c-0.476,0-0.863,0.386-0.863,0.863v3.804c0,0.476,0.386,0.863,0.863,0.863
								s0.863-0.386,0.863-0.863v-3.804C96.775,140.511,96.388,140.124,95.912,140.124z"/>
						</g>
					</g>
					<g>
						<g>
							<path style="fill:#007CE6;" d="M101.252,145.355h-3.417c-0.476,0-0.863,0.386-0.863,0.863c0,0.476,0.386,0.863,0.863,0.863
								h3.417c0.476,0,0.863-0.386,0.863-0.863C102.114,145.741,101.728,145.355,101.252,145.355z"/>
						</g>
						<g>
							<path style="fill:#007CE6;" d="M93.99,145.355h-3.417c-0.476,0-0.863,0.386-0.863,0.863c0,0.476,0.386,0.863,0.863,0.863
								h3.417c0.476,0,0.863-0.386,0.863-0.863C94.852,145.741,94.466,145.355,93.99,145.355z"/>
						</g>
					</g>
				</g>
				<g>
					<g>
						<g>
							<g>
								<path style="fill:#61B3FF;" d="M72.601,152.875c-0.476,0-0.863,0.386-0.863,0.863v3.804c0,0.477,0.386,0.863,0.863,0.863
									c0.476,0,0.863-0.386,0.863-0.863v-3.804C73.464,153.261,73.078,152.875,72.601,152.875z"/>
							</g>
							<g>
								<path style="fill:#61B3FF;" d="M72.601,146.218c-0.476,0-0.863,0.386-0.863,0.863v3.804c0,0.477,0.386,0.863,0.863,0.863
									c0.476,0,0.863-0.386,0.863-0.863v-3.804C73.464,146.604,73.078,146.218,72.601,146.218z"/>
							</g>
						</g>
						<g>
							<g>
								<path style="fill:#61B3FF;" d="M77.941,151.448h-3.417c-0.476,0-0.863,0.386-0.863,0.863c0,0.477,0.386,0.863,0.863,0.863
									h3.417c0.476,0,0.862-0.386,0.862-0.863C78.803,151.835,78.417,151.448,77.941,151.448z"/>
							</g>
							<g>
								<path style="fill:#61B3FF;" d="M70.679,151.448h-3.417c-0.476,0-0.863,0.386-0.863,0.863c0,0.477,0.386,0.863,0.863,0.863
									h3.417c0.476,0,0.863-0.386,0.863-0.863C71.541,151.835,71.155,151.448,70.679,151.448z"/>
							</g>
						</g>
					</g>
				</g>
			</g>
		</g>
		<g>
			<g>
				<path style="fill:#2A365C;" d="M90.324,206.736v18.364c0,1.176-0.951,2.12-2.119,2.12H69.833c-0.806,0-1.502-0.443-1.865-1.103
					c-0.036-0.073-0.073-0.145-0.094-0.218c-0.036-0.109-0.073-0.218-0.109-0.334c0-0.014-0.007-0.022-0.007-0.036
					s-0.007-0.036-0.007-0.051c-0.022-0.123-0.036-0.247-0.036-0.377v-18.364c0-1.103,0.835-1.996,1.894-2.112
					c0.073,0,0.153-0.007,0.225-0.007h18.372c0.218,0,0.428,0.029,0.624,0.094c0,0,0,0,0.007,0
					C89.7,204.98,90.324,205.778,90.324,206.736z"/>
			</g>
			<g>
				<g>
					<g>
						<g>
							<path style="fill:#FEFDFF;" d="M80.36,222.149l-0.015,1.831l-2.326-0.019l0.014-1.749c-1.649-0.112-3.246-0.571-4.231-1.189
								l1.277-2.828c1.084,0.652,2.532,1.077,3.803,1.087c1.105,0.009,1.503-0.219,1.507-0.615c0.012-1.452-6.383-0.332-6.348-4.639
								c0.015-1.864,1.381-3.421,4.09-3.778l0.015-1.798l2.326,0.019l-0.014,1.765c1.22,0.126,2.405,0.449,3.342,0.984l-1.194,2.812
								c-1.134-0.587-2.204-0.876-3.21-0.884c-1.138-0.009-1.504,0.318-1.507,0.714c-0.011,1.386,6.383,0.283,6.348,4.54
								C84.221,220.184,82.921,221.724,80.36,222.149z"/>
						</g>
					</g>
				</g>
			</g>
		</g>
		<g>
			<g>
				<path style="fill:#61B3FF;" d="M453.421,334.308v18.386c0,1.177-0.952,2.122-2.122,2.122h-18.394
					c-0.807,0-1.504-0.443-1.868-1.105c-0.036-0.073-0.073-0.145-0.095-0.218c-0.036-0.109-0.073-0.218-0.109-0.334
					c0-0.014-0.007-0.022-0.007-0.036c0-0.015-0.007-0.036-0.007-0.051c-0.022-0.124-0.036-0.247-0.036-0.378v-18.386
					c0-1.105,0.836-1.999,1.897-2.115c0.073,0,0.153-0.007,0.225-0.007h18.394c0.218,0,0.429,0.029,0.625,0.094c0,0,0,0,0.007,0
					C452.796,332.549,453.421,333.349,453.421,334.308z"/>
			</g>
			<g>
				<g>
					<path style="fill:#FEFDFF;" d="M442.331,336.785c-3.909,0-7.09,3.18-7.09,7.09c0,3.909,3.18,7.09,7.09,7.09
						c3.909,0,7.09-3.181,7.09-7.09C449.42,339.965,446.24,336.785,442.331,336.785z M442.616,346.492v-2.484h3.205
						c-0.02,0.878-0.147,1.713-0.379,2.484H442.616z M444.624,349.322c0.521-0.661,0.935-1.421,1.232-2.259h2.159
						c-0.913,1.623-2.444,2.765-4.245,3.171C444.075,349.961,444.361,349.655,444.624,349.322z M445.248,347.063
						c-0.267,0.697-0.623,1.332-1.058,1.889c-0.68,0.868-1.359,1.309-1.574,1.436l0-3.324H445.248z M442.616,340.384v-3.022
						c0.084,0.004,0.169,0.009,0.254,0.016c0.355,0.301,1.466,1.331,2.223,3.007H442.616z M445.715,340.384
						c-0.254-0.611-0.575-1.196-0.955-1.742c-0.275-0.395-0.577-0.766-0.897-1.105c1.631,0.395,3.062,1.42,3.971,2.847H445.715z
						 M442.616,343.438v-2.484h2.709c0.293,0.8,0.459,1.635,0.492,2.484H442.616z M446.388,343.438
						c-0.031-0.844-0.185-1.679-0.457-2.484h2.228c0.391,0.778,0.619,1.613,0.677,2.484H446.388z M448.848,344.008
						c-0.017,0.863-0.201,1.698-0.547,2.484h-2.265c0.217-0.776,0.336-1.611,0.355-2.484H448.848z M438.692,346.492h-2.331
						c-0.346-0.786-0.53-1.621-0.547-2.484h2.523C438.356,344.881,438.475,345.716,438.692,346.492z M439.634,340.384
						c0.22-0.489,0.486-0.961,0.793-1.403c0.596-0.859,1.193-1.403,1.438-1.609c0.06-0.004,0.12-0.007,0.181-0.01v3.022H439.634z
						 M442.046,340.954v2.484h-3.135c0.033-0.846,0.199-1.681,0.491-2.484H442.046z M436.828,340.384
						c0.926-1.454,2.388-2.487,4.055-2.867c-0.328,0.344-0.635,0.722-0.916,1.125c-0.38,0.546-0.701,1.131-0.955,1.742H436.828z
						 M442.046,344.008v2.484h-2.761c-0.231-0.768-0.358-1.603-0.378-2.484H442.046z M435.826,343.438
						c0.057-0.87,0.285-1.705,0.677-2.484h2.294c-0.273,0.805-0.427,1.64-0.458,2.484H435.826z M438.872,347.063
						c0.297,0.839,0.712,1.599,1.232,2.259c0.269,0.341,0.562,0.653,0.874,0.93c-1.816-0.387-3.414-1.561-4.332-3.189H438.872z
						 M442.046,347.063v3.284c-0.431-0.269-1.778-1.241-2.565-3.284H442.046z"/>
				</g>
			</g>
		</g>
	</g>
	<g>
		<g>
			<path style="fill:#ABD3F2;" d="M306.27,148.072l2.535,0.837l1.345,0.443l3.81,1.256c0,0,56.752-45.908,42.209-73.255
				c-4.477-8.419-18.011-7.896-25.602,20.25C323.53,123.693,306.27,148.072,306.27,148.072z"/>
			<g>
				<g>
					<path style="fill:#90C3EF;" d="M308.805,148.909l1.345,0.443c11.401-12.003,20.2-26.189,25.747-36.381
						c6.587-12.102,10.145-21.349,10.179-21.441c0.127-0.33-0.038-0.701-0.369-0.825c-0.33-0.127-0.701,0.038-0.826,0.367
						c-0.035,0.093-3.568,9.275-10.119,21.305C329.186,122.619,320.308,136.918,308.805,148.909z"/>
				</g>
			</g>
		</g>
		<g>
			<path style="fill:#ABD3F2;" d="M158.3,390.126l-2.499,0.162l-1.326,0.085l-3.755,0.243c0,0-40.713-55.049-21.067-76.453
				c6.048-6.589,18.212-2.927,18.475,24.416C148.372,363.926,158.3,390.126,158.3,390.126z"/>
			<g>
				<path style="fill:#90C3EF;" d="M155.801,390.288l-1.326,0.085c-7.524-13.583-12.171-28.535-14.807-39.096
					c-3.13-12.539-4.182-21.773-4.191-21.864c-0.038-0.33,0.2-0.627,0.529-0.663c0.33-0.038,0.627,0.2,0.664,0.528
					c0.01,0.093,1.055,9.261,4.169,21.727C143.49,361.619,148.182,376.692,155.801,390.288z"/>
			</g>
		</g>
		<g>
			<path style="fill:#CAE6FE;" d="M170.873,398.422l-2.92,2.15l-1.549,1.139l-4.388,3.228c0,0-92.622-35.314-85.388-76.748
				c2.227-12.756,19.916-17.791,41.589,15.336C138.308,374.235,170.873,398.422,170.873,398.422z"/>
			<g>
				<path style="fill:#ABD3F2;" d="M167.953,400.571l-1.549,1.139c-19.78-10.683-37.122-25.282-48.582-36.097
					c-13.608-12.842-22.102-23.276-22.184-23.381c-0.304-0.372-0.246-0.92,0.128-1.221c0.372-0.304,0.92-0.246,1.222,0.125
					c0.085,0.105,8.518,10.466,22.049,23.231C130.555,375.236,148.047,389.947,167.953,400.571z"/>
			</g>
		</g>
		<g>
			<path style="fill:#CAE6FE;" d="M293.105,156.902l2.793,2.673l1.482,1.417l4.198,4.014c0,0,102.762-24.657,100.786-69.455
				c-0.608-13.791-18.621-21.537-46.072,10.521C330.846,135.789,293.105,156.902,293.105,156.902z"/>
			<g>
				<path style="fill:#ABD3F2;" d="M295.897,159.575l1.482,1.417c22.376-8.587,42.71-21.648,56.307-31.514
					c16.146-11.715,26.554-21.584,26.656-21.683c0.372-0.352,0.386-0.939,0.032-1.309c-0.352-0.372-0.939-0.386-1.309-0.034
					c-0.104,0.1-10.439,9.9-26.493,21.544C338.906,137.908,318.399,151.067,295.897,159.575z"/>
			</g>
		</g>
		<g>
			<path style="fill:#ABD3F2;" d="M109.209,126.925c3.814,11.135,15.058,10.324,15.193,19.486
				c0.134,9.159,6.168,15.872,14.003,13.872c7.837-2.002,13.492-3.912,17.471,5.043c3.977,8.955,15.661,13.036,19.917,5.663
				c1.061-1.835,2.206-3.823,3.326-5.774c0.306-0.533,0.611-1.064,0.911-1.586c0.07-0.121,0.141-0.242,0.209-0.362
				c4.506-7.847,2.5-17.92-4.833-23.221c-2.969-2.145-6.461-3.277-10.315-1.969c-12.07,4.092-8.17-8.375-15.66-13.276
				c-8.627-5.647-15.541,1.426-21.494-3.441C119.656,114.591,105.395,115.79,109.209,126.925z"/>
			<g>
				<path style="fill:#90C3EF;" d="M123.983,131.203l55.136,34.013c0.306-0.533,0.611-1.064,0.911-1.586l-55.086-33.983
					c-0.43-0.265-0.993-0.132-1.258,0.297C123.42,130.374,123.553,130.938,123.983,131.203z"/>
			</g>
		</g>
		<g>
			<path style="fill:#CAE6FE;" d="M117.679,64.721c-1.679,14.472,11.313,19.562,6.577,29.867
				c-4.734,10.302-1.575,21.018,8.243,22.963c9.821,1.944,17.156,2.826,16.824,14.95c-0.334,12.124,10.54,22.912,19.226,16.947
				c2.164-1.483,4.503-3.094,6.794-4.675c0.626-0.432,1.25-0.862,1.863-1.286c0.143-0.097,0.286-0.195,0.426-0.293
				c9.217-6.362,12.349-18.682,6.986-28.514c-2.171-3.979-5.468-7.106-10.471-7.7c-15.663-1.866-4.658-13.712-10.412-23.18
				c-6.625-10.908-18.119-6.695-22.172-15.307C135.927,56.515,119.358,50.249,117.679,64.721z"/>
			<g>
				<path style="fill:#ABD3F2;" d="M131.9,77.377l43.444,67.395c0.626-0.432,1.25-0.862,1.863-1.286l-43.405-67.335
					c-0.339-0.525-1.039-0.677-1.564-0.339C131.714,76.152,131.562,76.852,131.9,77.377z"/>
			</g>
		</g>
		<g>
			<path style="fill:#ABD3F2;" d="M354.339,310.574c-11.186,3.663-10.526,14.917-19.689,14.928
				c-9.16,0.011-15.953,5.954-14.06,13.815c1.896,7.863,3.73,13.543-5.279,17.401c-9.008,3.856-13.246,15.483-5.931,19.839
				c1.82,1.086,3.793,2.257,5.728,3.403c0.529,0.313,1.055,0.625,1.574,0.932c0.12,0.072,0.24,0.144,0.359,0.214
				c7.785,4.611,17.884,2.741,23.284-4.519c2.185-2.939,3.364-6.416,2.108-10.287c-3.929-12.124,8.485-8.056,13.486-15.48
				c5.763-8.551-1.217-15.559,3.731-21.445C366.532,321.187,365.525,306.91,354.339,310.574z"/>
			<g>
				<path style="fill:#90C3EF;" d="M349.863,325.289l-34.753,54.672c0.529,0.313,1.055,0.625,1.574,0.932l34.722-54.623
					c0.271-0.426,0.146-0.991-0.28-1.262C350.7,324.738,350.134,324.863,349.863,325.289z"/>
			</g>
		</g>
		<g>
			<path style="fill:#CAE6FE;" d="M396.874,333.906c-14.448-1.874-19.713,11.048-29.953,6.174
				c-10.238-4.873-20.995-1.858-23.072,7.933c-2.076,9.794-3.057,17.116-15.176,16.621c-12.118-0.498-23.052,10.23-17.205,18.996
				c1.454,2.184,3.032,4.544,4.583,6.856c0.424,0.631,0.845,1.262,1.261,1.881c0.095,0.144,0.191,0.288,0.288,0.43
				c6.237,9.302,18.514,12.6,28.417,7.37c4.008-2.118,7.179-5.372,7.841-10.366c2.077-15.637,13.773-4.473,23.318-10.098
				c10.997-6.477,6.939-18.027,15.604-21.964C404.832,352.262,411.322,335.78,396.874,333.906z"/>
			<g>
				<path style="fill:#ABD3F2;" d="M384.027,347.955l-67.975,42.532c0.424,0.631,0.845,1.262,1.261,1.881l67.914-42.493
					c0.53-0.332,0.691-1.03,0.36-1.56C385.255,347.785,384.556,347.623,384.027,347.955z"/>
			</g>
		</g>
		<g>
			<g>
				<path style="fill:#ABD3F2;" d="M167.799,278.173c-14.134-16.286-39.29-48.392-47.04-61.287
					c-10.125-16.847-14.56-30.551-13.183-40.733c0.092-0.674,0.712-1.148,1.388-1.057c0.675,0.091,1.148,0.713,1.057,1.388
					c-2.408,17.797,12.071,43.806,59.011,99.462L167.799,278.173z"/>
			</g>
			<path style="fill:#CAE6FE;" d="M112.985,201.115c0,0-8.23,6.207-18.577-8.689C94.408,192.426,109.7,186.497,112.985,201.115z"/>
			<path style="fill:#CAE6FE;" d="M117.923,209.07c0,0-6.655-7.872,7.642-19.032C125.564,190.038,132.335,204.977,117.923,209.07z"
				/>
			<path style="fill:#CAE6FE;" d="M108.869,184.043c0,0-8.899-5.202,0.859-20.491C109.728,163.552,121.092,175.379,108.869,184.043z
				"/>
			<path style="fill:#CAE6FE;" d="M127.362,225.382c0,0-5.645,8.625-20.422-1.893C106.941,223.489,119.326,212.738,127.362,225.382z
				"/>
			<path style="fill:#CAE6FE;" d="M133.619,232.725c0,0-7.916-6.602,4.235-20.067C137.854,212.658,147.106,226.201,133.619,232.725z
				"/>
			<path style="fill:#CAE6FE;" d="M141.188,243.63c0,0-5.481,8.73-20.454-1.505C120.734,242.125,132.913,231.141,141.188,243.63z"/>
		</g>
		<g>
			<g>
				<path style="fill:#ABD3F2;" d="M264.142,131.141c7.335-20.279,14.827-37.139,22.312-50.19
					c9.778-17.051,19.584-27.602,29.146-31.36c0.634-0.249,1.349,0.063,1.599,0.697c0.249,0.634-0.063,1.35-0.697,1.599
					c-16.715,6.569-34.644,36.054-51.901,85.318L264.142,131.141z"/>
			</g>
			<path style="fill:#CAE6FE;" d="M296.438,66.478c0,0-9.431-4.162-1.465-20.457C294.973,46.021,307.601,56.486,296.438,66.478z"/>
			<path style="fill:#CAE6FE;" d="M291.896,74.666c0,0,3.631-9.648,20.343-2.601C312.24,72.065,302.494,85.256,291.896,74.666z"/>
			<path style="fill:#CAE6FE;" d="M309.34,54.565c0,0,0.207-10.306,18.312-9.235C327.652,45.33,322.862,61.016,309.34,54.565z"/>
			<path style="fill:#CAE6FE;" d="M282.252,90.857c0,0-10.283-0.727-8.298-18.755C273.954,72.102,289.378,77.678,282.252,90.857z"/>
			<path style="fill:#CAE6FE;" d="M278.889,99.899c0,0,1.908-10.13,19.587-6.08C298.476,93.82,291.158,108.497,278.889,99.899z"/>
			<path style="fill:#CAE6FE;" d="M273.054,111.822c0,0-10.295-0.532-8.652-18.595C264.401,93.228,279.928,98.511,273.054,111.822z"
				/>
		</g>
	</g>
	<g>
		<g>
			<path style="fill:#2A365C;" d="M332.151,124.066v291.413c0,9.135-7.403,16.538-16.538,16.538H170.495
				c-4.59,0-8.739-1.867-11.736-4.884c-2.967-2.992-4.801-7.108-4.801-11.654V124.066c0-9.135,7.403-16.538,16.538-16.538h145.118
				c2.7,0,5.25,0.646,7.502,1.796C328.48,112.057,332.151,117.631,332.151,124.066z"/>
			<path style="fill:#16162F;" d="M332.151,124.066v291.413c0,9.135-7.403,16.538-16.538,16.538H170.495
				c-4.59,0-8.739-1.867-11.736-4.884l164.356-317.809C328.48,112.057,332.151,117.631,332.151,124.066z"/>
		</g>
		<g>
			<path style="fill:#16162F;" d="M153.957,198.448h-2.39c-2.021,0-3.66-1.639-3.66-3.66v-31.179c0-2.021,1.639-3.66,3.66-3.66h2.39
				V198.448z"/>
			<path style="fill:#16162F;" d="M332.151,188.375h1.956c1.654,0,2.994-1.34,2.994-2.994v-25.36c0-1.654-1.34-2.994-2.994-2.994
				h-1.956V188.375z"/>
			<path style="fill:#16162F;" d="M153.957,242.171h-2.39c-2.021,0-3.66-1.638-3.66-3.66v-31.179c0-2.021,1.639-3.66,3.66-3.66h2.39
				V242.171z"/>
		</g>
		<g>
			<path style="fill:#FEFDFF;" d="M323.902,123.347v292.852c0,4.179-3.39,7.569-7.569,7.569H169.776
				c-3.116,0-5.791-1.883-6.951-4.573c-0.399-0.919-0.618-1.931-0.618-2.996V123.347c0-4.181,3.388-7.569,7.569-7.569h146.558
				c1.105,0,2.155,0.236,3.099,0.663C322.066,117.624,323.902,120.271,323.902,123.347z"/>
			<g>
				<g>
					<g>
						<g>
							<path style="fill:#CAE6FE;" d="M308.952,339.704h-89.212c-1.621,0-2.935-1.314-2.935-2.935l0,0
								c0-1.621,1.314-2.935,2.935-2.935h89.212c1.621,0,2.935,1.314,2.935,2.935l0,0
								C311.887,338.389,310.573,339.704,308.952,339.704z"/>
						</g>
						<g>
							<path style="fill:#CAE6FE;" d="M308.952,352.42h-89.212c-1.621,0-2.935-1.314-2.935-2.935l0,0
								c0-1.621,1.314-2.935,2.935-2.935h89.212c1.621,0,2.935,1.314,2.935,2.935l0,0
								C311.887,351.106,310.573,352.42,308.952,352.42z"/>
						</g>
						<g>
							<path style="fill:#CAE6FE;" d="M308.952,365.137h-89.212c-1.621,0-2.935-1.314-2.935-2.935l0,0
								c0-1.621,1.314-2.935,2.935-2.935h89.212c1.621,0,2.935,1.314,2.935,2.935l0,0
								C311.887,363.823,310.573,365.137,308.952,365.137z"/>
						</g>
					</g>
				</g>
				<rect x="177.567" y="333.843" style="fill:#CAE6FE;" width="31.279" height="31.279"/>
				<g>
					<g>
						<g>
							<g>
								<path style="fill:#CAE6FE;" d="M229.065,153.865h-48.563c-1.621,0-2.935,1.314-2.935,2.935l0,0
									c0,1.621,1.314,2.935,2.935,2.935h48.563c1.621,0,2.935-1.314,2.935-2.935l0,0C232,155.179,230.686,153.865,229.065,153.865
									z"/>
							</g>
							<g>
								<path style="fill:#CAE6FE;" d="M229.065,166.582h-48.563c-1.621,0-2.935,1.314-2.935,2.935l0,0
									c0,1.621,1.314,2.935,2.935,2.935h48.563c1.621,0,2.935-1.314,2.935-2.935l0,0C232,167.896,230.686,166.582,229.065,166.582
									z"/>
							</g>
							<g>
								<path style="fill:#CAE6FE;" d="M229.065,179.298h-48.563c-1.621,0-2.935,1.314-2.935,2.935l0,0
									c0,1.621,1.314,2.935,2.935,2.935h48.563c1.621,0,2.935-1.314,2.935-2.935l0,0C232,180.612,230.686,179.298,229.065,179.298
									z"/>
							</g>
						</g>
					</g>
					<g>
						<g>
							<g>
								<path style="fill:#CAE6FE;" d="M308.864,153.865h-48.563c-1.621,0-2.935,1.314-2.935,2.935l0,0
									c0,1.621,1.314,2.935,2.935,2.935h48.563c1.621,0,2.935-1.314,2.935-2.935l0,0
									C311.799,155.179,310.485,153.865,308.864,153.865z"/>
							</g>
							<g>
								<path style="fill:#CAE6FE;" d="M308.864,166.582h-48.563c-1.621,0-2.935,1.314-2.935,2.935v0
									c0,1.621,1.314,2.935,2.935,2.935h48.563c1.621,0,2.935-1.314,2.935-2.935v0
									C311.799,167.896,310.485,166.582,308.864,166.582z"/>
							</g>
							<g>
								<path style="fill:#CAE6FE;" d="M308.864,179.298h-48.563c-1.621,0-2.935,1.314-2.935,2.935l0,0
									c0,1.621,1.314,2.935,2.935,2.935h48.563c1.621,0,2.935-1.314,2.935-2.935l0,0
									C311.799,180.612,310.485,179.298,308.864,179.298z"/>
							</g>
						</g>
					</g>
				</g>
				<g>
					<path style="fill:#2A365C;" d="M280.777,407.926h-74.59c-4.733,0-8.569-3.837-8.569-8.569v-11.193
						c0-4.733,3.837-8.569,8.569-8.569h74.59c4.733,0,8.569,3.836,8.569,8.569v11.193
						C289.347,404.089,285.51,407.926,280.777,407.926z"/>
					<g>
						
							<text transform="matrix(1 0 0 1 212.4048 402.9398)" style="fill:#16162F; font-family:'Montserrat-Black'; font-size:21.6121px;">RENT</text>
						<g>
							
								<text transform="matrix(1 0 0 1 212.4048 401.3069)" style="fill:#FEFDFF; font-family:'Montserrat-Black'; font-size:21.6121px;">RENT</text>
						</g>
					</g>
				</g>
			</g>
			<g>
				<path style="fill:#2A365C;" d="M186.201,118.078l8.016,12.196c2.236,3.402,6.034,5.451,10.106,5.451h77.465
					c4.071,0,7.87-2.049,10.105-5.451l8.016-12.196c0-1.264-1.034-2.3-2.3-2.3H188.501
					C187.238,115.778,186.201,116.815,186.201,118.078z"/>
				<path style="fill:#445279;" d="M269.374,126.896h-66.376c-1.349,0-2.452-1.104-2.452-2.452l0,0c0-1.349,1.104-2.452,2.452-2.452
					h66.376c1.349,0,2.452,1.104,2.452,2.452l0,0C271.826,125.792,270.722,126.896,269.374,126.896z"/>
				<path style="fill:#445279;" d="M284.838,124.28c0,1.625-1.318,2.943-2.943,2.943s-2.943-1.317-2.943-2.943
					c0-1.625,1.317-2.943,2.943-2.943S284.838,122.655,284.838,124.28z"/>
			</g>
		</g>
		<g>
			<g>
				<g>
					<rect x="173.644" y="245.25" style="fill:#009EF3;" width="139.612" height="63.431"/>
					<rect x="173.644" y="245.25" style="fill:#007CE6;" width="139.612" height="5.037"/>
					<polygon style="fill:#445279;" points="313.256,241.477 173.644,241.477 184.513,215.745 302.386,215.745 					"/>
					<rect x="167.441" y="241.303" style="fill:#2A365C;" width="150.244" height="3.947"/>
					<polygon style="fill:#009EF3;" points="272.847,308.681 214.052,308.681 214.052,259.479 244.239,243.075 272.847,257.867 
											"/>
					<rect x="210.692" y="263.964" style="fill:#007CE6;" width="4.944" height="44.717"/>
					<rect x="271.328" y="263.964" style="fill:#007CE6;" width="4.944" height="44.717"/>
					<g>
						<rect x="233.392" y="275.567" style="fill:#2A365C;" width="20.114" height="33.198"/>
						<rect x="235.416" y="277.591" style="fill:#445279;" width="16.066" height="31.174"/>
						<path style="fill:#2A365C;" d="M250.453,294.123c0,0.932-0.755,1.687-1.687,1.687c-0.932,0-1.687-0.755-1.687-1.687
							c0-0.932,0.755-1.687,1.687-1.687C249.698,292.436,250.453,293.191,250.453,294.123z"/>
						<path style="fill:#2A365C;" d="M255.867,275.567h-24.834c-0.828,0-1.499-0.671-1.499-1.499v-0.979h27.833v0.979
							C257.366,274.896,256.695,275.567,255.867,275.567z"/>
						<g>
							<rect x="237.606" y="279.879" style="fill:#CAE6FE;" width="4.957" height="10.092"/>
							<polygon style="fill:#FEFDFF;" points="242.563,280.278 242.563,283.264 237.606,288.219 237.606,285.233 							"/>
							<rect x="237.606" y="279.879" style="opacity:0.2;" width="4.957" height="1.427"/>
						</g>
						<g>
							<rect x="244.601" y="279.879" style="fill:#CAE6FE;" width="4.957" height="10.092"/>
							<polygon style="fill:#FEFDFF;" points="249.558,280.278 249.558,283.264 244.601,288.219 244.601,285.233 							"/>
							<rect x="244.601" y="279.879" style="opacity:0.2;" width="4.957" height="1.427"/>
						</g>
					</g>
					<path style="fill:#2A365C;" d="M317.685,241.331H167.441v-2.126c0-1.798,1.457-3.255,3.255-3.255h143.735
						c1.798,0,3.255,1.457,3.255,3.255V241.331z"/>
					<g>
						<g>
							<polygon style="fill:#445279;" points="287.686,264.009 279.635,263.987 271.263,263.964 243.45,245.214 215.636,263.964 
								207.265,263.987 199.213,264.009 243.45,234.19 							"/>
						</g>
						<g>
							<polygon style="fill:#2A365C;" points="279.635,263.987 271.263,263.964 243.45,245.214 215.636,263.964 207.265,263.987 
								243.45,239.594 							"/>
						</g>
					</g>
					<g>
						<g>
							<g>
								<g>
									<g>
										<rect x="187.575" y="272.584" style="fill:#CAE6FE;" width="11.857" height="22.127"/>
										<g>
											<polygon style="fill:#FEFDFF;" points="199.432,272.584 195.253,272.584 187.607,280.23 187.607,286.478 
												199.432,274.653 											"/>
										</g>
										<g>
											<polygon style="fill:#FEFDFF;" points="199.432,281.941 187.607,293.767 187.607,294.711 189.784,294.711 
												199.432,285.064 											"/>
										</g>
										<path style="fill:#445279;" d="M185.955,270.964v25.366h13.477v-25.366H185.955z M187.576,272.583h10.206v10.228h-10.206
											V272.583z M187.576,294.71v-10.228h10.206v10.228H187.576z"/>
									</g>
									<rect x="185.955" y="271.103" style="opacity:0.2;" width="13.476" height="2.612"/>
								</g>
							</g>
							<path style="fill:#2A365C;" d="M200.804,270.964h-16.22c-0.685,0-1.24-0.555-1.24-1.24v-0.81h18.7v0.81
								C202.044,270.409,201.488,270.964,200.804,270.964z"/>
						</g>
						<rect x="185.955" y="296.33" style="fill:#007CE6;" width="13.477" height="2.596"/>
					</g>
					<g>
						<g>
							<g>
								<g>
									<g>
										<rect x="291.917" y="272.584" style="fill:#CAE6FE;" width="11.857" height="22.127"/>
										<g>
											<polygon style="fill:#FEFDFF;" points="303.774,272.584 299.596,272.584 291.949,280.23 291.949,286.478 
												303.774,274.653 											"/>
										</g>
										<g>
											<polygon style="fill:#FEFDFF;" points="303.774,281.941 291.949,293.767 291.949,294.711 294.126,294.711 
												303.774,285.064 											"/>
										</g>
										<path style="fill:#445279;" d="M290.297,270.964v25.366h13.477v-25.366H290.297z M291.918,272.583h10.206v10.228h-10.206
											V272.583z M291.918,294.71v-10.228h10.206v10.228H291.918z"/>
									</g>
									<rect x="290.298" y="271.103" style="opacity:0.2;" width="13.476" height="2.612"/>
								</g>
							</g>
							<path style="fill:#2A365C;" d="M305.146,270.964h-16.22c-0.685,0-1.24-0.555-1.24-1.24v-0.81h18.7v0.81
								C306.386,270.409,305.83,270.964,305.146,270.964z"/>
						</g>
						<rect x="290.297" y="296.33" style="fill:#007CE6;" width="13.477" height="2.596"/>
					</g>
					<path style="fill:#2A365C;" d="M299.381,220.862H188.282c-0.391,0-0.707-0.317-0.707-0.707v-0.924
						c0-0.391,0.317-0.707,0.707-0.707h111.099c0.39,0,0.707,0.317,0.707,0.707v0.924
						C300.088,220.546,299.771,220.862,299.381,220.862z"/>
					<path style="fill:#2A365C;" d="M300.868,227.01H185.934c-0.391,0-0.707-0.317-0.707-0.707v-0.924
						c0-0.391,0.317-0.707,0.707-0.707h114.935c0.391,0,0.707,0.317,0.707,0.707v0.924
						C301.576,226.693,301.259,227.01,300.868,227.01z"/>
					<path style="fill:#2A365C;" d="M305.678,233.158H182.427c-0.391,0-0.707-0.317-0.707-0.707v-0.924
						c0-0.39,0.317-0.707,0.707-0.707h123.251c0.391,0,0.707,0.317,0.707,0.707v0.924
						C306.386,232.841,306.069,233.158,305.678,233.158z"/>
					<g>
						<g>
							<rect x="192.694" y="207.62" style="fill:#009EF3;" width="15.59" height="17.586"/>
							<rect x="192.694" y="207.62" style="fill:#007CE6;" width="15.59" height="4.518"/>
						</g>
						<g>
							<path style="fill:#445279;" d="M211.539,201.67v2.089c0,0.304-0.036,0.601-0.104,0.886c-0.4,1.704-1.932,2.975-3.757,2.975
								H193.3c-1.826,0-3.358-1.271-3.757-2.975c-0.068-0.285-0.104-0.582-0.104-0.886v-2.089H211.539z"/>
							<path style="fill:#2A365C;" d="M211.435,204.645c-0.4,1.704-1.932,2.975-3.757,2.975H193.3c-1.826,0-3.358-1.271-3.757-2.975
								H211.435z"/>
						</g>
					</g>
					<path style="fill:#445279;" d="M315.843,312.616h-144.96c-0.657,0-1.19-0.533-1.19-1.19v-1.554c0-0.657,0.533-1.19,1.19-1.19
						h144.96c0.657,0,1.19,0.533,1.19,1.19v1.554C317.033,312.083,316.501,312.616,315.843,312.616z"/>
					<path style="fill:#2A365C;" d="M319.527,316.487H167.2c-0.657,0-1.19-0.533-1.19-1.19v-1.554c0-0.657,0.533-1.19,1.19-1.19
						h152.327c0.657,0,1.19,0.533,1.19,1.19v1.554C320.717,315.955,320.184,316.487,319.527,316.487z"/>
				</g>
				<polygon style="fill:#007CE6;" points="215.636,264.01 215.636,269.986 243.832,251.837 271.328,269.986 271.263,264.01 
					243.45,245.261 				"/>
			</g>
		</g>
		<path style="opacity:0.3;fill:#FEFDFF;" d="M323.902,123.347v292.852c0,4.179-3.39,7.569-7.569,7.569H169.776
			c-3.116,0-5.791-1.883-6.951-4.573l156.608-302.754C322.066,117.624,323.902,120.271,323.902,123.347z"/>
	</g>
	<g>
		<path style="fill:#61B3FF;" d="M69.618,378.506l12.152,4.067c1.537,0.513,3.199-0.316,3.711-1.852l10.301-30.783l4.261-12.73
			l-17.714-5.93l-2.524,7.542l-12.038,35.974C67.252,376.328,68.081,377.99,69.618,378.506z"/>
		<path style="fill:#009EF3;" d="M79.806,338.82c3.525,3.917,8.857,8.532,15.977,11.118l4.261-12.73l-17.714-5.93L79.806,338.82z"/>
		<g>
			<path style="fill:#2A365C;" d="M81.192,382.379l-1.185,3.543l-15.26,45.603c-1.017,3.038-4.302,4.675-7.34,3.66
				c-3.035-1.018-4.675-4.303-3.657-7.34l13.82-41.298l2.625-7.848L81.192,382.379z"/>
			<polygon style="fill:#16162F;" points="81.192,382.379 80.007,385.922 67.57,386.547 70.195,378.699 			"/>
		</g>
		<g>
			<path style="fill:#445279;" d="M56.471,272.433c-9.347,27.467,5.34,57.313,32.81,66.662c27.469,9.348,57.314-5.343,66.662-32.81
				c9.348-27.469-5.34-57.316-32.809-66.665C95.664,230.273,65.819,244.964,56.471,272.433z M64.098,275.029
				c7.902-23.22,33.22-35.683,56.44-27.781c23.22,7.902,35.679,33.222,27.777,56.441c-7.901,23.217-33.219,35.68-56.439,27.778
				C68.657,323.566,56.197,298.246,64.098,275.029z"/>
			<path style="opacity:0.5;fill:#FEFDFF;" d="M61.837,292.481c1.721,24.464,23.025,42.97,47.492,41.249
				c2.098-0.147,4.155-0.439,6.158-0.866c5.19-1.104,10.025-3.105,14.348-5.827c4.508-2.838,8.459-6.457,11.672-10.652
				c5.055-6.589,8.29-14.6,9.024-23.238c0.193-2.264,0.212-4.573,0.048-6.909c-1.721-24.467-23.025-42.973-47.492-41.252
				c-2.337,0.164-4.62,0.507-6.837,1.015c-8.451,1.936-15.932,6.264-21.746,12.191c-3.704,3.768-6.734,8.187-8.91,13.048
				c-2.089,4.661-3.394,9.729-3.76,15.022C61.69,288.306,61.689,290.383,61.837,292.481z"/>
			<path style="opacity:0.5;fill:#FEFDFF;" d="M74.502,258.192l67.004,58.193c5.055-6.589,8.29-14.6,9.024-23.238l-54.282-47.146
				C87.797,247.937,80.316,252.265,74.502,258.192z"/>
			<path style="opacity:0.5;fill:#FEFDFF;" d="M61.832,286.262l53.655,46.602c5.19-1.104,10.025-3.105,14.348-5.827L65.593,271.24
				C63.503,275.901,62.198,280.969,61.832,286.262z"/>
		</g>
	</g>
	<g>
		<g>
			<g>
				<g>
					<polygon style="fill:#FBA691;" points="358.834,409.677 358.274,419.769 366.461,419.948 367.463,409.347 					"/>
					<g>
						<path style="fill:#009EF3;" d="M361.522,418.351c0,0,4.215-0.955,5.368-0.888c1.153,0.067,8.554,9.002,11.137,9.61
							c4.684,1.102,4.411,8.471,1.525,8.728c-8.346,0.743-22.423-3.305-22.423-3.305s-0.951-9.505-0.269-12.451
							C357.541,417.099,359.169,419.135,361.522,418.351z"/>
						<g>
							<g>
								<path style="fill:#FEFDFF;" d="M368.094,426.683c-0.15,0.027-0.309-0.005-0.442-0.101c-0.257-0.188-0.313-0.547-0.126-0.804
									c0.062-0.086,1.552-2.113,3.327-2.771c2.36-0.878,3.96,0.58,4.028,0.643c0.233,0.216,0.245,0.581,0.028,0.814
									c-0.217,0.232-0.581,0.245-0.814,0.028c-0.044-0.039-1.161-1.027-2.842-0.405c-1.445,0.536-2.783,2.351-2.796,2.37
									C368.366,426.58,368.234,426.658,368.094,426.683z"/>
							</g>
							<g>
								<path style="fill:#FEFDFF;" d="M366.569,424.881c-0.149,0.027-0.309-0.005-0.442-0.101
									c-0.257-0.187-0.314-0.547-0.126-0.804c0.063-0.086,1.553-2.113,3.327-2.771c2.362-0.879,3.961,0.579,4.028,0.643
									c0.233,0.216,0.245,0.581,0.028,0.813c-0.216,0.233-0.581,0.246-0.814,0.028c-0.044-0.039-1.162-1.027-2.842-0.405
									c-1.452,0.539-2.783,2.351-2.796,2.369C366.841,424.778,366.71,424.855,366.569,424.881z"/>
							</g>
							<g>
								<path style="fill:#FEFDFF;" d="M370.259,428.25c-0.149,0.027-0.309-0.005-0.442-0.101c-0.257-0.187-0.314-0.547-0.126-0.804
									c0.063-0.086,1.553-2.113,3.327-2.771c2.362-0.879,3.961,0.58,4.028,0.642c0.232,0.217,0.245,0.581,0.028,0.813
									c-0.216,0.233-0.581,0.246-0.814,0.028c-0.044-0.039-1.162-1.027-2.842-0.405c-1.452,0.539-2.783,2.351-2.796,2.369
									C370.532,428.147,370.4,428.224,370.259,428.25z"/>
							</g>
						</g>
					</g>
				</g>
				<g>
					<path style="fill:#2A365C;" d="M388.941,286.71c0,0-0.17,2.37-0.48,6.3c-0.08,1.04-0.17,2.19-0.27,3.44
						c-1.06,13.19-3.11,37.04-5.35,53.96c-3.14,23.72-13.03,62.7-13.03,62.7l-10.21-0.35l-1.01-0.04l-2.42-0.08
						c0,0,1.7-24.66,3.87-46.07c1.43-14.12,2.28-47.53,2.69-68.63c0.21-10.88,0.31-18.49,0.31-18.49L388.941,286.71z"/>
				</g>
				<path style="fill:#16162F;" d="M388.941,286.71c0,0-0.17,2.37-0.48,6.3c-0.08,1.04-0.17,2.19-0.27,3.44
					c-4.71,0.88-17.66,1.49-25.46,1.49c0.21-10.88,0.31-18.49,0.31-18.49L388.941,286.71z"/>
				<g>
					<path style="fill:#16162F;" d="M368.542,292.838c-0.01,0.81-0.95,77.68-8.94,119.92l-1.01-0.04
						c8-42.11,8.94-119.09,8.95-119.89L368.542,292.838z"/>
				</g>
			</g>
			<g>
				<g>
					<polygon style="fill:#FBA691;" points="422.865,411.615 422.531,420.719 414.209,420.279 414.02,410.612 					"/>
					<g>
						<g>
							<g>
								<path style="fill:#009EF3;" d="M420.409,420.3c0,0,1.813-2.362,3.224-2.239c1.411,0.123,12.176,8.945,15.898,9.715
									c3.722,0.77,2.956,3.507,2.251,4.902c-0.705,1.394-29.763-0.969-29.763-0.969s-0.671-8.67,0.319-11.304
									C413.326,417.771,417.481,420.884,420.409,420.3z"/>
								<g>
									<g>
										<path style="fill:#FEFDFF;" d="M426.34,426.433c-0.133,0.037-0.28,0.023-0.408-0.053
											c-0.249-0.147-0.331-0.467-0.185-0.716c0.049-0.083,1.218-2.046,2.764-2.796c2.056-1.001,3.63,0.177,3.696,0.227
											c0.229,0.175,0.273,0.504,0.097,0.733c-0.175,0.229-0.503,0.273-0.733,0.097c-0.043-0.032-1.139-0.826-2.604-0.116
											c-1.259,0.611-2.309,2.369-2.319,2.387C426.577,426.316,426.465,426.398,426.34,426.433z"/>
									</g>
									<g>
										<path style="fill:#FEFDFF;" d="M424.804,424.938c-0.132,0.037-0.28,0.023-0.408-0.053
											c-0.249-0.147-0.332-0.467-0.185-0.716c0.049-0.083,1.218-2.046,2.763-2.796c2.058-1.001,3.631,0.176,3.697,0.227
											c0.229,0.175,0.273,0.504,0.097,0.733c-0.175,0.229-0.504,0.273-0.733,0.097c-0.043-0.032-1.14-0.827-2.604-0.116
											c-1.265,0.614-2.309,2.369-2.319,2.387C425.041,424.821,424.929,424.902,424.804,424.938z"/>
									</g>
									<g>
										<path style="fill:#FEFDFF;" d="M428.435,427.659c-0.133,0.038-0.28,0.023-0.408-0.052
											c-0.249-0.147-0.332-0.467-0.185-0.716c0.049-0.083,1.218-2.046,2.764-2.797c2.058-1.001,3.631,0.176,3.697,0.227
											c0.229,0.175,0.272,0.504,0.097,0.733c-0.175,0.229-0.504,0.273-0.733,0.097c-0.043-0.032-1.141-0.826-2.604-0.116
											c-1.265,0.614-2.309,2.369-2.319,2.387C428.672,427.542,428.56,427.624,428.435,427.659z"/>
									</g>
								</g>
							</g>
						</g>
					</g>
				</g>
				<path style="fill:#2A365C;" d="M424.381,413.99l-8.459-0.629l-1.008-0.07l-2.055-0.154c0,0-5.196-49.456-6.812-62.63
					c-1.405-11.445-7.965-37.159-12.225-53.159c-1.207-4.542-2.23-8.301-2.903-10.73c-0.514-1.91-0.818-2.996-0.818-2.996
					l28.279-2.738c0,0,0.079,0.621,0.209,1.739c0.275,2.288,0.804,6.672,1.443,12.182c1.766,14.998,4.452,38.338,5.493,50.219
					C428.193,375.619,424.381,413.99,424.381,413.99z"/>
				<path style="fill:#16162F;" d="M420.032,294.806l-26.21,2.541c-1.207-4.542-2.23-8.301-2.903-10.73l27.67-3.994
					C418.864,284.912,419.394,289.296,420.032,294.806z"/>
				<g>
					<path style="fill:#16162F;" d="M415.922,413.361l-1.008-0.07c-0.491-15.293-1.992-53.489-5.056-69.681
						c-3.851-20.411-12.706-50.132-12.797-50.432l0.963-0.286c0.091,0.301,8.961,30.073,12.817,50.535
						C413.925,359.72,415.438,398.098,415.922,413.361z"/>
				</g>
			</g>
			<g>
				<path style="fill:#FBA691;" d="M416.775,210.243c0.555,3.696,1.128,7.242,1.628,10.212c0.804,4.79,1.412,8.081,1.412,8.081
					l4.339,12.435c1.487,4.253,6.424,6.164,10.388,4.021c0.068-0.033,0.145-0.062,0.205-0.109c1.447-1.114,2.598-3.277,3.667-8.367
					c0,0,0,0,0-0.002c0.034-0.44,3.879-19.416,3.914-26.246l-8.791-0.835c-0.377-0.822-2.263,8.939-2.681,8.038
					c-0.266-0.581-0.543-1.18-0.822-1.786c-0.467-1.007-0.952-2.048-1.444-3.111c-0.7-1.507-1.422-3.061-2.152-4.627
					c-5.374-11.564-11.097-23.801-11.097-23.801C413.485,185.183,415.02,198.472,416.775,210.243z"/>
				<path style="fill:#FD857D;" d="M416.777,210.242c0.554,3.697,1.127,7.243,1.626,10.213c5.106-1.919,8.375-5.387,10.187-7.881
					c-0.7-1.508-1.422-3.062-2.151-4.627L416.777,210.242z"/>
				<g>
					<path style="fill:#FD857D;" d="M428.45,232.491c0.03,0.002,0.056,0,0.086-0.001c0.272-0.016,0.497-0.228,0.522-0.506
						c0.592-6.637,1.306-11.557,1.799-14.512c-0.267-0.581-0.545-1.18-0.824-1.786c-0.473,2.607-1.37,8.154-2.089,16.198
						C427.917,232.191,428.142,232.461,428.45,232.491z"/>
				</g>
				<path style="fill:#61B3FF;" d="M432.074,207.239c0,0-1.072,1.44-2.998,3.066c-2.33,1.978-6.685,4.498-11.118,4.805
					c-4.255-13.354-5.594-30.197-4.306-34.653C415.847,182.857,427.022,196.213,432.074,207.239z"/>
				<g>
					<path style="fill:#2A365C;" d="M429.075,207.469l0.14,0.083l1.184,0.679l0.279-0.498l10.282-0.282
						c0.869-0.021,1.582-0.694,1.659-1.56l1.89-21.489c0.009-0.108,0.011-0.215,0-0.315l0.394-0.605l-1.24-0.712l-0.049-0.026
						l-0.035-0.02c-0.246-0.124-0.525-0.193-0.821-0.184l-10.904,0.299c-0.869,0.021-1.582,0.694-1.655,1.559l-1.89,21.489
						C428.253,206.541,428.57,207.134,429.075,207.469z"/>
					<path style="fill:#445279;" d="M431.309,208.462l10.9-0.297c0.869-0.024,1.582-0.695,1.658-1.561l1.889-21.491
						c0.09-1.019-0.729-1.888-1.751-1.86l-10.9,0.297c-0.869,0.024-1.582,0.695-1.658,1.561l-1.889,21.491
						C429.468,207.62,430.286,208.49,431.309,208.462z"/>
				</g>
				<path style="fill:#FBA691;" d="M444.929,194.523c1.01,0.116,0.172,1.599,0.839,3.678c0.83,2.59-3.47,13.232-3.47,13.232
					c-4.175,1.897-9.186-1.432-9.186-1.432s-1.075-8.108-0.073-11.772c0,0,0.592-3.274,0.766-5.195
					c0.173-1.909,1.024-4.098,1.628-3.71c0.604,0.388,0.754,1.948,0.767,3.132c0.012,1.184,0.251,3.448,0.251,3.448
					s0.325-2.797,0.375-4.339c0.05-1.541-0.069-3.991,0.87-4.472c1.181-0.605,1.517,2.678,1.669,3.868
					c0.152,1.19-0.316,4.889-0.316,4.889s0.806-4.15,0.603-5.379c-0.204-1.23-0.458-3.63-0.397-4.647
					c0.061-1.017,1.367-0.849,1.76,0.403c0.393,1.252,0.843,3.768,0.951,4.611c0.138,1.075-0.125,4.655-0.125,4.655
					s0.513-4.077,0.48-5.154c-0.027-0.875-0.297-2.604,0.014-3.612c0.312-1.008,1.521-1.2,1.907,1.448
					c0.385,2.648,0.45,2.961,0.375,3.754c-0.131,1.397-0.37,2.945-0.211,3.52c0.08,0.287,0.409,0.291,0.409,0.291L444.929,194.523z"
					/>
			</g>
			<g>
				<g>
					<path style="fill:#61B3FF;" d="M422.958,283.069c-21.065,6.71-42.479,7.986-64.245,3.882
						c-0.419-5.926-1.518-25.378-2.349-45.877c-0.028-0.68-0.057-1.36-0.083-2.041c-0.02-0.546-0.04-1.091-0.063-1.64
						c-0.016-0.393-0.033-0.789-0.046-1.185c-0.008-0.18-0.014-0.36-0.02-0.541c-0.022-0.535-0.037-1.082-0.059-1.614
						c-0.019-0.447-0.041-0.893-0.056-1.34c-0.001-0.061-0.005-0.124-0.006-0.185c-0.001-0.056-0.004-0.109-0.005-0.165
						c-0.021-0.469-0.034-0.942-0.052-1.406c-0.003-0.091-0.008-0.183-0.011-0.272c-0.016-0.564-0.04-1.127-0.056-1.688
						c-0.016-0.388-0.029-0.769-0.044-1.15c-0.004-0.155-0.009-0.31-0.015-0.465c-0.021-0.431-0.035-0.865-0.045-1.292
						c-0.005-0.13-0.008-0.259-0.011-0.389c-0.011-0.394-0.022-0.79-0.033-1.186c-0.005-0.168-0.008-0.335-0.013-0.503
						c-0.016-0.564-0.043-1.124-0.048-1.679c-0.023-0.546-0.037-1.082-0.049-1.615c-0.014-0.358-0.025-0.713-0.037-1.069
						c-0.024-0.775-0.042-1.542-0.058-2.301c-0.45-17.561-0.397-31.969,0.862-33.941c2.924-4.57,17.071-11.926,21.341-15.328
						l0.042,0.702c0,0,3.014,3.525,6.141,3.059c2.84-0.413,4.825-3.851,5.156-4.474c2.315,1.432,7.591,3.648,12.72,6.047
						c5.128,2.39,10.109,4.946,11.836,7.042c1.478,1.806,3.131,15.854,4.636,33.102l0.003,0.056
						c0.027,0.322,0.057,0.643,0.084,0.964l0.003,0.048c0.015,0.249,0.04,0.496,0.066,0.754c0.012,0.157,0.024,0.312,0.039,0.471
						c0.029,0.352,0.063,0.709,0.09,1.066c0.042,0.532,0.092,1.066,0.135,1.61c0.041,0.552,0.085,1.112,0.137,1.673
						c0.013,0.167,0.025,0.334,0.04,0.501c0.031,0.395,0.063,0.79,0.099,1.182c0.01,0.129,0.018,0.258,0.029,0.388
						c0.033,0.425,0.067,0.858,0.101,1.289l0.036,0.463c0.028,0.38,0.059,0.76,0.09,1.147c0.041,0.56,0.085,1.122,0.13,1.684
						c0.005,0.089,0.013,0.18,0.021,0.271c0.033,0.464,0.069,0.935,0.105,1.403c0.003,0.056,0.009,0.109,0.012,0.165
						c0.004,0.061,0.01,0.124,0.014,0.185c0.037,0.445,0.069,0.891,0.104,1.337c0.042,0.532,0.085,1.066,0.118,1.611
						c0.013,0.18,0.027,0.36,0.04,0.539c0.031,0.395,0.06,0.79,0.089,1.183c0.041,0.545,0.081,1.089,0.119,1.636
						c0.049,0.679,0.097,1.358,0.146,2.037C421.591,257.621,422.678,277.082,422.958,283.069z"/>
				</g>
				<g>
					<path style="fill:#009EF3;" d="M418.885,220.7l-63.127,3.814c-0.005-0.168-0.008-0.335-0.013-0.503
						c-0.016-0.564-0.043-1.124-0.048-1.679c-0.023-0.546-0.037-1.082-0.049-1.615c-0.014-0.358-0.025-0.713-0.037-1.069
						l62.871-3.799c0.029,0.352,0.063,0.709,0.09,1.066c0.042,0.532,0.092,1.066,0.135,1.61c0.041,0.552,0.085,1.112,0.137,1.673
						C418.857,220.366,418.87,220.533,418.885,220.7z"/>
					<path style="fill:#009EF3;" d="M419.521,228.877l-63.485,3.836c-0.001-0.061-0.005-0.124-0.006-0.185
						c-0.001-0.056-0.004-0.109-0.005-0.165c-0.021-0.469-0.034-0.942-0.052-1.406c-0.003-0.091-0.008-0.183-0.011-0.272
						c-0.016-0.564-0.04-1.127-0.056-1.688c-0.016-0.388-0.029-0.769-0.044-1.15l63.287-3.824c0.028,0.38,0.059,0.76,0.09,1.147
						c0.041,0.56,0.085,1.122,0.13,1.684c0.005,0.089,0.013,0.18,0.021,0.271c0.033,0.464,0.069,0.935,0.105,1.403
						c0.003,0.056,0.009,0.109,0.012,0.165C419.511,228.753,419.518,228.816,419.521,228.877z"/>
					<path style="fill:#009EF3;" d="M420.137,237.221l-63.774,3.853c-0.028-0.68-0.057-1.36-0.083-2.041
						c-0.02-0.546-0.04-1.091-0.063-1.64c-0.016-0.393-0.033-0.789-0.046-1.185l63.612-3.843c0.031,0.395,0.06,0.79,0.089,1.183
						c0.041,0.545,0.081,1.089,0.119,1.636C420.04,235.863,420.089,236.542,420.137,237.221z"/>
				</g>
				<g>
					<path style="fill:#009EF3;" d="M411.291,204.996c1.991,2.377,5.02,7.853,6.384,10.386c0.186,0.348,0.341,0.64,0.459,0.861
						c0.155,0.291,0.241,0.459,0.248,0.472c0.044,0.087,0.109,0.154,0.188,0.2c-0.042-0.515-0.086-1.027-0.13-1.538
						c-0.02-0.253-0.044-0.506-0.065-0.755l-0.003-0.041c-0.279-0.516-0.609-1.122-0.977-1.787c-1.544-2.779-3.735-6.518-5.34-8.436
						c-0.176-0.211-0.49-0.238-0.702-0.062C411.142,204.472,411.117,204.786,411.291,204.996z"/>
				</g>
				<g>
					<path style="fill:#009EF3;" d="M369.072,188.17c0.005,0,0.011-0.001,0.016-0.001c8.503-0.786,14.862-4.727,18.699-7.895
						c4.157-3.432,6.277-6.635,6.365-6.77c0.151-0.23,0.086-0.538-0.143-0.688c-0.231-0.151-0.538-0.086-0.689,0.143
						c-0.084,0.127-8.546,12.761-24.323,14.22c-0.274,0.025-0.475,0.267-0.45,0.541C368.572,187.988,368.805,188.186,369.072,188.17
						z"/>
				</g>
				<g>
					<path style="fill:#009EF3;" d="M405.824,272.336c0.259-0.016,0.466-0.23,0.467-0.494c0.001-0.275-0.22-0.499-0.495-0.5
						c-14.033-0.072-22.798-6.651-27.68-12.157c-5.308-5.987-7.315-12.043-7.335-12.104c-0.085-0.261-0.365-0.405-0.627-0.319
						c-0.261,0.085-0.404,0.365-0.32,0.626c0.082,0.254,2.077,6.285,7.51,12.426c5.019,5.672,14.028,12.449,28.447,12.523
						C405.803,272.337,405.813,272.337,405.824,272.336z"/>
				</g>
				<g>
					<path style="fill:#009EF3;" d="M393.973,264.013c0.219-0.013,0.411-0.171,0.457-0.396c0.056-0.269-0.118-0.532-0.387-0.588
						c-12.344-2.55-15.301-12.552-15.33-12.652c-0.074-0.264-0.35-0.419-0.613-0.344c-0.264,0.074-0.418,0.348-0.345,0.613
						c0.031,0.11,0.779,2.721,3.14,5.686c2.173,2.729,6.183,6.275,12.946,7.672C393.887,264.013,393.931,264.016,393.973,264.013z"
						/>
				</g>
			</g>
			<g>
				<path style="fill:#009EF3;" d="M361.685,206.362c-1.689,2.599-4.038,8.4-5.087,11.079c-0.142,0.367-0.261,0.676-0.351,0.911
					c-0.119,0.306-0.185,0.485-0.189,0.497c-0.071,0.191-0.245,0.311-0.437,0.323l-0.01,0.001c-0.01-0.253-0.018-0.507-0.026-0.758
					c-0.147,0.009-0.293,0.018-0.435,0.021c0.058-0.15,0.198-0.518,0.398-1.036c0.252-0.651,0.602-1.544,1.016-2.561
					c1.198-2.946,2.923-6.922,4.284-9.018c0.151-0.231,0.458-0.297,0.689-0.146C361.77,205.824,361.833,206.134,361.685,206.362z"/>
			</g>
			<g>
				<path style="fill:#2A365C;" d="M366.431,137.439c0,0-1.412-6.239-0.012-8.476c1.4-2.237,3.934-1.745,6.452-4.372
					c2.518-2.628,10.778-0.759,14.294-1.617c1.934-0.472,4.031-0.335,5.921-0.839c2.704-0.72,4.332,1.911,3.835,4.628
					c-0.316,1.729-1.018,4.339-3.443,5.158C393.479,131.92,369.592,129.041,366.431,137.439z"/>
				<path style="fill:#2A365C;" d="M366.196,142.504c0.551,9.126,6.55,15.075,15.675,14.524c9.126-0.551,15.077-7.697,14.525-16.823
					c-0.551-9.125-6.373-15.713-15.498-15.161C369.953,125.705,365.644,133.378,366.196,142.504z"/>
				<g>
					<path style="fill:#FD857D;" d="M368.483,146.309c0,0-2.74-3.227-4.456-0.318c-1.716,2.909,1.448,11.005,5.942,8.71
						L368.483,146.309z"/>
					<g>
						<g>
							<g>
								<path style="fill:#F05B56;" d="M368.807,152.211c-0.171,0.01-0.334-0.093-0.393-0.262c-0.869-2.506-3.572-3.38-3.599-3.388
									c-0.206-0.064-0.321-0.284-0.256-0.489c0.064-0.206,0.283-0.321,0.488-0.257c0.126,0.039,3.105,0.993,4.106,3.878
									c0.071,0.204-0.037,0.426-0.241,0.497C368.877,152.202,368.842,152.209,368.807,152.211z"/>
							</g>
						</g>
					</g>
					<g>
						<path style="fill:#F05B56;" d="M366.064,151.088c-0.072,0.004-0.147-0.011-0.215-0.049c-0.188-0.106-0.255-0.344-0.149-0.532
							c0.018-0.031,0.442-0.772,1.393-1.269c0.19-0.1,0.427-0.026,0.527,0.166c0.1,0.191,0.026,0.427-0.166,0.527
							c-0.735,0.384-1.07,0.953-1.073,0.959C366.314,151.01,366.192,151.08,366.064,151.088z"/>
					</g>
				</g>
				<g>
					<path style="fill:#FD857D;" d="M394.612,144.731c0,0,2.331-3.534,4.385-0.852c2.054,2.682-0.112,11.099-4.85,9.362
						L394.612,144.731z"/>
					<g>
						<g>
							<g>
								<path style="fill:#F05B56;" d="M395.001,150.628c0.17-0.01,0.32-0.133,0.358-0.308c0.561-2.592,3.14-3.785,3.165-3.797
									c0.196-0.089,0.284-0.32,0.196-0.516c-0.088-0.197-0.32-0.285-0.516-0.196c-0.121,0.054-2.963,1.359-3.609,4.344
									c-0.046,0.211,0.088,0.419,0.299,0.465C394.93,150.628,394.966,150.63,395.001,150.628z"/>
							</g>
						</g>
					</g>
					<g>
						<g>
							<g>
								<path style="fill:#F05B56;" d="M397.589,149.183c0.072-0.004,0.144-0.029,0.207-0.075c0.174-0.128,0.212-0.372,0.084-0.546
									c-0.021-0.029-0.531-0.713-1.535-1.092c-0.201-0.077-0.427,0.026-0.503,0.228c-0.076,0.202,0.026,0.427,0.228,0.503
									c0.776,0.293,1.177,0.817,1.18,0.823C397.331,149.135,397.461,149.191,397.589,149.183z"/>
							</g>
						</g>
					</g>
				</g>
				<path style="fill:#FBA691;" d="M388.722,160.597l0.496,8.211c0,0-2.196,4.329-5.49,4.814c-3.291,0.489-6.465-3.223-6.465-3.223
					l-0.514-8.499L388.722,160.597z"/>
				<path style="fill:#FD857D;" d="M388.722,160.597l0.22,3.643c-2.073,2.6-5.982,3.454-11.873,2.945l-0.319-5.285L388.722,160.597z
					"/>
				<path style="fill:#FBA691;" d="M367.128,146.236c0.062,0.474,0.131,0.952,0.208,1.437c0.197,1.215,0.438,2.462,0.737,3.699
					c0.011,0.044,0.019,0.086,0.03,0.124c1.468,5.988,4.307,11.79,9.764,13.376c12.362,3.589,16.056-7.047,17.419-13.201
					c0.15-0.683,0.278-1.441,0.381-2.247c0.004-0.031,0.007-0.065,0.013-0.102c0.114-0.906,0.202-1.868,0.265-2.858
					c0.048-0.733,0.082-1.476,0.107-2.225c0.067-1.818,0.072-3.638,0.051-5.252c-0.046-3.687-2.452-6.937-5.976-8.049
					c-5.079-1.608-12.705-2.664-19.601,1.816c-2.548,1.653-4.034,4.523-3.91,7.557C366.686,141.985,366.835,144.038,367.128,146.236
					z"/>
				<path style="fill:#2A365C;" d="M376.784,146.459c0.053,0.876-0.356,1.614-0.913,1.648c-0.557,0.034-1.052-0.65-1.105-1.526
					c-0.053-0.876,0.356-1.614,0.913-1.648C376.236,144.9,376.731,145.583,376.784,146.459z"/>
				<path style="fill:#2A365C;" d="M389.156,145.712c0.053,0.876-0.356,1.614-0.913,1.648c-0.557,0.034-1.052-0.65-1.105-1.526
					c-0.053-0.876,0.356-1.614,0.913-1.648C388.608,144.152,389.103,144.835,389.156,145.712z"/>
				<path style="fill:#2A365C;" d="M390.575,140.208c0,0-3.259-1.066-5.646,0.141l0.328,1.348c0,0,3.579-0.522,5.436,0.103
					C390.822,141.266,390.814,140.734,390.575,140.208z"/>
				<path style="fill:#2A365C;" d="M371.697,141.348c0,0,3.107-1.45,5.622-0.54l-0.163,1.378c0,0-3.616-0.087-5.384,0.757
					C371.579,142.429,371.523,141.9,371.697,141.348z"/>
				<g>
					<path style="fill:#FD857D;" d="M382.388,152.859c-0.648,0.119-1.338-0.014-1.445-0.037c-0.211-0.044-0.346-0.251-0.302-0.462
						c0.043-0.211,0.251-0.347,0.462-0.303c0.373,0.077,1.247,0.145,1.568-0.138c0.062-0.055,0.142-0.155,0.123-0.393
						c-0.108-1.368-1.303-5.798-1.316-5.843c-0.056-0.208,0.067-0.423,0.275-0.479c0.209-0.057,0.423,0.067,0.479,0.275
						c0.05,0.185,1.227,4.546,1.34,5.985c0.043,0.542-0.186,0.865-0.386,1.041C382.968,152.698,382.682,152.804,382.388,152.859z"/>
				</g>
				<path style="fill:#FEFDFF;" d="M377.197,155.521c0.416,1.585,1.653,4.471,5.223,4.256c3.578-0.216,4.419-2.973,4.651-4.852
					L377.197,155.521z"/>
				<path style="fill:#2A365C;" d="M396.036,144.714l-1.768,0.107c0.088-1.787-0.687-3.892-1.305-5.289
					c-1.404-3.168,1.081-4.752-1.096-6.249c-2.177-1.501-7.31-0.491-10.916-0.39c-3.628,0.102-9.444,0.504-10.836,0.917
					c-1.396,0.409-0.478,2.713,0.151,4.503c0.632,1.786-1.504,3.936-1.769,5.842c-0.076,0.547-0.005,1.349,0.135,2.214l-1.473,0.089
					c-0.313-2.282-0.469-4.415-0.542-6.148c-0.124-3.034,1.362-5.904,3.909-7.557c6.897-4.48,14.524-3.426,19.601-1.818
					c3.524,1.114,5.932,4.363,5.979,8.051C396.127,140.74,396.117,142.736,396.036,144.714z"/>
				<g>
					<g>
						<path style="fill:#FEFDFF;" d="M383.548,146.671c-0.155-2.563,1.804-4.773,4.367-4.928c2.563-0.155,4.773,1.804,4.928,4.367
							c0.155,2.563-1.804,4.773-4.367,4.928C385.914,151.193,383.703,149.234,383.548,146.671z M384.273,146.627
							c0.131,2.163,1.997,3.817,4.16,3.686c2.163-0.131,3.817-1.997,3.686-4.16c-0.131-2.163-1.997-3.817-4.16-3.686
							C385.795,142.598,384.142,144.464,384.273,146.627z"/>
					</g>
					<g>
						<path style="fill:#FEFDFF;" d="M370.845,147.439c-0.155-2.563,1.804-4.773,4.366-4.928c2.563-0.155,4.773,1.804,4.928,4.367
							c0.155,2.563-1.804,4.773-4.367,4.928C373.211,151.96,371,150.001,370.845,147.439z M371.57,147.395
							c0.131,2.163,1.997,3.817,4.16,3.686c2.163-0.131,3.817-1.997,3.686-4.16c-0.131-2.163-1.997-3.817-4.16-3.686
							C373.093,143.366,371.439,145.232,371.57,147.395z"/>
					</g>
					<g>
						<path style="fill:#FEFDFF;" d="M391.967,144.66c0.092-0.006,0.182-0.046,0.249-0.12l0,0c0.02-0.022,2.007-2.197,4.816-1.719
							c0.197,0.034,0.385-0.099,0.419-0.297c0.034-0.198-0.099-0.385-0.297-0.419c-3.212-0.547-5.388,1.849-5.479,1.951
							c-0.133,0.15-0.12,0.379,0.03,0.512C391.779,144.636,391.874,144.666,391.967,144.66z"/>
					</g>
					<g>
						<path style="fill:#FEFDFF;" d="M371.455,145.9c0.118-0.007,0.231-0.072,0.294-0.183c0.099-0.174,0.039-0.395-0.135-0.495
							c-0.144-0.082-3.56-2.005-6.331-1.375c-0.195,0.044-0.318,0.239-0.273,0.434c0.044,0.195,0.237,0.318,0.434,0.273
							c2.493-0.567,5.777,1.279,5.811,1.298C371.317,145.889,371.387,145.904,371.455,145.9z"/>
					</g>
					<g>
						<path style="fill:#FEFDFF;" d="M379.822,145.849c0.007-0.012,0.798-1.228,1.93-1.296c1.12-0.068,1.968,1.047,1.977,1.059
							l0.583-0.433c-0.044-0.059-1.086-1.442-2.603-1.35c-1.506,0.091-2.459,1.569-2.499,1.632L379.822,145.849z"/>
					</g>
				</g>
			</g>
			<g>
				<path style="fill:#FBA691;" d="M360.042,278.308l-4.11,5.61c0,0-2.38-1.49-5.61-4.08c-0.01-0.01-0.01-0.01-0.02-0.02
					c-4.92-3.93-11.81-10.4-15.33-18.01c-4.4-9.51-3.11-17.21-3.11-17.21c0.58-5.64,4.36-17.1,7.37-25.61
					c1.1-3.09,2.1-5.78,2.8-7.67l9.19,2.11l3.93,2.42l-1.51,3.99l-10.14,26.9c0.89,7.89,4.89,15.65,8.74,21.49
					C356.222,274.288,360.042,278.308,360.042,278.308z"/>
				<path style="fill:#FD857D;" d="M360.042,278.308l-4.11,5.61c0,0-2.38-1.49-5.61-4.08c-0.01-0.01-0.01-0.01-0.02-0.02
					c-0.71-4.24-0.28-10.23,1.94-11.59C356.222,274.288,360.042,278.308,360.042,278.308z"/>
				<path style="fill:#FBA691;" d="M357.847,271.835c0.827,0.054,5.237,0.273,4.76-1.236c-0.526-1.664-4.854-3.613-4.854-3.613
					s-0.025-0.085,0.017-0.197l-0.047-0.355l-0.191-3.577c-0.836,0.006-1.604,0.169-2.02,0.298
					c-1.897,0.587-1.637,4.926-1.637,4.926s-2.392,0.855-2.305,2.607c0.087,1.752,2.014,2.015,2.014,2.015s-2.632,1.314-2.017,2.803
					c0.616,1.489,2.611,1.927,2.611,1.927s-2.258,1.489-1.469,2.54c0.788,1.051,2.628,1.577,2.628,1.577s-1.575,2.132,0.026,3.294
					c1.6,1.162,3.955,0.91,5.468,0.384c1.514-0.525,1.251-2.452-1.727-3.854c0,0,2.628,0.263,3.941-1.927
					c1.096-1.826-1.699-2.615-4.083-2.929c1.873,0.126,5.105,0.073,5.66-1.714C365.349,272.46,358.859,271.907,357.847,271.835z"/>
				<path style="fill:#FD857D;" d="M355.152,215.848l-1.51,3.99c-3.05,0.19-8.51,0.28-14.41-0.85c1.1-3.09,2.1-5.78,2.8-7.67
					l9.19,2.11L355.152,215.848z"/>
				<path style="fill:#61B3FF;" d="M356.416,183.406c0,0-11.186,11.222-19.353,30.795c6.401,2.07,12.46,3.535,18.087,4.235
					c0.742-1.304,3.677-9.674,5.888-15.713L356.416,183.406z"/>
			</g>
		</g>
	</g>
</g>
<g id="DESIGNED_BY_FREEPIK">
	<g>
		<g id="XMLID_1_">
			<g id="XMLID_20_">
				<path id="XMLID_28_" style="fill:#112129;" d="M260.104,465.465c-0.432,0.443-0.803,0.931-1.108,1.453l-0.465-0.241
					c-0.067-0.298-0.349-0.503-0.659-0.466c-0.331,0.039-0.568,0.339-0.529,0.67c0.039,0.331,0.339,0.568,0.67,0.529
					c0.065-0.008,0.127-0.026,0.183-0.052l0.452,0.234c-0.251,0.554-0.433,1.139-0.539,1.744l0.747,0.132
					c0.23-1.306,0.85-2.507,1.792-3.473L260.104,465.465z"/>
				<path id="XMLID_27_" style="fill:#112129;" d="M265.592,463.163c-0.171,0-0.341,0.006-0.51,0.017l-0.074-0.626
					c0.188-0.149,0.296-0.389,0.266-0.645c-0.046-0.393-0.402-0.674-0.795-0.628c-0.393,0.046-0.674,0.402-0.628,0.795
					c0.03,0.254,0.189,0.461,0.405,0.564l0.073,0.624c-0.714,0.116-1.403,0.332-2.06,0.646l0.327,0.684
					c0.934-0.447,1.942-0.673,2.995-0.673c0.496,0,0.993,0.053,1.475,0.158l0.161-0.741
					C266.692,463.222,266.142,463.163,265.592,463.163z"/>
				<path id="XMLID_26_" style="fill:#112129;" d="M272.194,465.711c0.331-0.04,0.566-0.341,0.526-0.672
					c-0.04-0.331-0.341-0.566-0.672-0.526c-0.309,0.038-0.535,0.304-0.53,0.609l-0.416,0.363c-0.418-0.43-0.89-0.813-1.408-1.139
					l-0.404,0.641c1.134,0.715,2.021,1.726,2.563,2.925l0.691-0.313c-0.251-0.554-0.568-1.072-0.942-1.545l0.402-0.351
					C272.065,465.716,272.129,465.719,272.194,465.711z"/>
				<path id="XMLID_25_" style="fill:#112129;" d="M265.044,473.372c-0.386,0.023-0.775,0.035-1.157,0.035
					c-0.88,0-1.733-0.061-2.478-0.179c-0.39-0.062-0.846-0.155-1.27-0.292c1.046,1.861,3.069,3.125,5.388,3.125
					c2.855,0,5.262-1.916,5.95-4.504c-0.682,0.449-1.505,0.825-2.459,1.123C267.839,473.047,266.464,473.286,265.044,473.372z"/>
				<path id="XMLID_21_" style="fill:#112129;" d="M265.592,464.68c-3.352,0-6.08,2.666-6.08,5.943c0,0.426,0.046,0.849,0.137,1.261
					c0.673,0.483,2.706,0.89,5.348,0.731c2.879-0.173,5.297-0.957,6.672-2.159c-0.005-0.195-0.021-0.39-0.045-0.582
					C271.244,466.913,268.65,464.68,265.592,464.68z M263.432,471.194c-1.02,0-1.85-0.83-1.85-1.85c0-1.02,0.83-1.85,1.85-1.85
					c1.02,0,1.85,0.83,1.85,1.85C265.282,470.365,264.452,471.194,263.432,471.194z M268.17,470.286c-0.75,0-1.36-0.61-1.36-1.36
					s0.61-1.361,1.36-1.361c0.75,0,1.361,0.61,1.361,1.361S268.92,470.286,268.17,470.286z"/>
			</g>
			<path id="XMLID_18_" style="fill:#112129;" d="M281.595,466.547c-0.295-0.116-0.805-0.309-1.382-0.237
				c-0.551,0.069-0.844,0.341-0.844,1.007v0.866h2.228v1.717h-2.228v5.455h-1.932v-5.455h-1.34v-1.717h1.34v-0.888
				c0-1.68,0.896-2.783,2.568-2.783c0.643,0,1.157,0.122,1.59,0.308L281.595,466.547z"/>
			<path id="XMLID_16_" style="fill:#112129;" d="M286.298,469.879c-0.177-0.03-0.358-0.046-0.526-0.046
				c-0.896,0-1.51,0.548-1.51,1.614v3.908h-1.932v-7.172h1.873v0.785c0.451-0.673,1.14-0.977,2.021-0.977
				c0.414,0,0.848,0.128,1.094,0.337L286.298,469.879z"/>
			<path id="XMLID_13_" style="fill:#112129;" d="M293.965,471.757c0,0.222-0.015,0.489-0.037,0.651h-5.085
				c0.207,1.036,0.933,1.488,1.843,1.488c0.622,0,1.295-0.252,1.813-0.688l1.132,1.243c-0.814,0.748-1.85,1.088-3.057,1.088
				c-2.198,0-3.723-1.495-3.723-3.753c0-2.258,1.48-3.797,3.627-3.797C292.544,467.99,293.958,469.522,293.965,471.757z
				 M288.851,471.091h3.175c-0.177-0.918-0.733-1.436-1.562-1.436C289.554,469.655,289.021,470.203,288.851,471.091z"/>
			<path id="XMLID_10_" style="fill:#112129;" d="M301.618,471.757c0,0.222-0.015,0.489-0.037,0.651h-5.085
				c0.207,1.036,0.933,1.488,1.843,1.488c0.622,0,1.295-0.252,1.813-0.688l1.132,1.243c-0.814,0.748-1.85,1.088-3.057,1.088
				c-2.198,0-3.723-1.495-3.723-3.753c0-2.258,1.48-3.797,3.627-3.797C300.197,467.99,301.611,469.522,301.618,471.757z
				 M296.504,471.091h3.175c-0.178-0.918-0.733-1.436-1.562-1.436C297.207,469.655,296.674,470.203,296.504,471.091z"/>
			<path id="XMLID_7_" style="fill:#112129;" d="M309.964,471.764c0,2.154-1.495,3.775-3.471,3.775
				c-0.962,0-1.643-0.378-2.109-0.933v3.708h-1.924v-10.133h1.887v0.792c0.466-0.585,1.155-0.984,2.139-0.984
				C308.469,467.99,309.964,469.61,309.964,471.764z M304.287,471.764c0,1.132,0.747,1.976,1.843,1.976
				c1.14,0,1.85-0.881,1.85-1.976c0-1.095-0.71-1.976-1.85-1.976C305.035,469.788,304.287,470.632,304.287,471.764z"/>
			<path id="XMLID_4_" style="fill:#112129;" d="M313.068,465.836c0,0.696-0.54,1.229-1.236,1.229c-0.696,0-1.229-0.533-1.229-1.229
				c0-0.696,0.533-1.243,1.229-1.243C312.527,464.592,313.068,465.14,313.068,465.836z M312.809,475.354h-1.932v-7.172h1.932
				V475.354z"/>
			<path id="XMLID_2_" style="fill:#112129;" d="M316.032,470.736l2.701-2.554h2.368l-3.479,3.375l3.501,3.797h-2.376l-2.716-2.901
				v2.901H314.1v-10.658h1.932V470.736z"/>
		</g>
		<g>
			<path style="fill:#112129;" d="M184.412,475.289v-1.055c-0.527,0.718-1.391,1.23-2.387,1.23c-1.846,0-3.149-1.406-3.149-3.706
				c0-2.256,1.289-3.721,3.149-3.721c0.952,0,1.816,0.469,2.387,1.245v-3.765h1.099v9.77H184.412z M184.412,473.37v-3.208
				c-0.395-0.615-1.245-1.143-2.124-1.143c-1.421,0-2.27,1.172-2.27,2.739c0,1.567,0.85,2.724,2.27,2.724
				C183.168,474.483,184.017,473.986,184.412,473.37z"/>
			<path style="fill:#112129;" d="M186.932,471.744c0-2.051,1.465-3.706,3.486-3.706c2.139,0,3.398,1.67,3.398,3.794v0.279h-5.727
				c0.088,1.333,1.025,2.446,2.549,2.446c0.805,0,1.626-0.322,2.182-0.894l0.527,0.718c-0.703,0.703-1.655,1.084-2.812,1.084
				C188.44,475.465,186.932,473.956,186.932,471.744z M190.403,468.947c-1.509,0-2.256,1.274-2.314,2.358h4.643
				C192.718,470.25,192.015,468.947,190.403,468.947z"/>
			<path style="fill:#112129;" d="M194.607,474.351l0.571-0.791c0.469,0.542,1.362,1.011,2.329,1.011c1.084,0,1.67-0.513,1.67-1.216
				c0-1.714-4.38-0.659-4.38-3.281c0-1.098,0.952-2.036,2.636-2.036c1.201,0,2.051,0.454,2.622,1.026l-0.513,0.762
				c-0.424-0.513-1.201-0.894-2.109-0.894c-0.967,0-1.567,0.483-1.567,1.113c0,1.552,4.38,0.527,4.38,3.281
				c0,1.187-0.952,2.138-2.783,2.138C196.306,475.465,195.325,475.113,194.607,474.351z"/>
			<path style="fill:#112129;" d="M201.477,466.471c0-0.41,0.337-0.747,0.732-0.747c0.41,0,0.747,0.337,0.747,0.747
				c0,0.41-0.337,0.732-0.747,0.732C201.814,467.203,201.477,466.881,201.477,466.471z M201.667,475.289v-7.075h1.099v7.075H201.667
				z"/>
			<path style="fill:#112129;" d="M204.582,477.105l0.556-0.82c0.586,0.703,1.289,0.967,2.3,0.967c1.172,0,2.27-0.571,2.27-2.124
				v-1.011c-0.513,0.718-1.377,1.26-2.373,1.26c-1.845,0-3.149-1.377-3.149-3.662c0-2.27,1.289-3.677,3.149-3.677
				c0.952,0,1.802,0.469,2.373,1.245v-1.069h1.098v6.87c0,2.344-1.641,3.076-3.369,3.076
				C206.237,478.16,205.417,477.926,204.582,477.105z M209.709,473.253v-3.091c-0.381-0.615-1.23-1.143-2.109-1.143
				c-1.421,0-2.27,1.128-2.27,2.695c0,1.553,0.849,2.695,2.27,2.695C208.478,474.41,209.328,473.868,209.709,473.253z"/>
			<path style="fill:#112129;" d="M217.413,475.289v-4.629c0-1.245-0.63-1.641-1.582-1.641c-0.865,0-1.685,0.527-2.095,1.099v5.17
				h-1.099v-7.075h1.099v1.025c0.498-0.586,1.465-1.201,2.519-1.201c1.48,0,2.256,0.747,2.256,2.285v4.966H217.413z"/>
			<path style="fill:#112129;" d="M219.932,471.744c0-2.051,1.465-3.706,3.486-3.706c2.139,0,3.398,1.67,3.398,3.794v0.279h-5.727
				c0.088,1.333,1.025,2.446,2.549,2.446c0.806,0,1.626-0.322,2.183-0.894l0.527,0.718c-0.703,0.703-1.655,1.084-2.812,1.084
				C221.441,475.465,219.932,473.956,219.932,471.744z M223.404,468.947c-1.509,0-2.256,1.274-2.314,2.358h4.643
				C225.718,470.25,225.015,468.947,223.404,468.947z"/>
			<path style="fill:#112129;" d="M233.35,475.289v-1.055c-0.527,0.718-1.392,1.23-2.388,1.23c-1.846,0-3.149-1.406-3.149-3.706
				c0-2.256,1.289-3.721,3.149-3.721c0.952,0,1.817,0.469,2.388,1.245v-3.765h1.098v9.77H233.35z M233.35,473.37v-3.208
				c-0.396-0.615-1.245-1.143-2.124-1.143c-1.421,0-2.27,1.172-2.27,2.739c0,1.567,0.849,2.724,2.27,2.724
				C232.105,474.483,232.954,473.986,233.35,473.37z"/>
			<path style="fill:#112129;" d="M239.692,475.289v-9.77h1.098v3.765c0.572-0.776,1.421-1.245,2.388-1.245
				c1.845,0,3.149,1.465,3.149,3.721c0,2.299-1.304,3.706-3.149,3.706c-0.996,0-1.86-0.513-2.388-1.23v1.055H239.692z
				 M242.9,474.483c1.436,0,2.285-1.157,2.285-2.724c0-1.568-0.85-2.739-2.285-2.739c-0.864,0-1.728,0.527-2.109,1.143v3.208
				C241.171,473.986,242.036,474.483,242.9,474.483z"/>
			<path style="fill:#112129;" d="M247.528,477.061c0.161,0.073,0.425,0.117,0.601,0.117c0.483,0,0.805-0.161,1.055-0.747
				l0.469-1.069l-2.959-7.148h1.187l2.358,5.8l2.344-5.8h1.201l-3.545,8.51c-0.425,1.025-1.143,1.421-2.08,1.435
				c-0.234,0-0.601-0.044-0.806-0.103L247.528,477.061z"/>
		</g>
	</g>
</g>
</svg>
